PathFileType	4	(X/Y/Z)	/Users/itak/Documents/Research/Walk-IL/dataset/trc/00213_00009.trc
DataRate	CameraRate	NumFrames	NumMarkers	Units	OrigDataRate	OrigDataStartFrame	OrigNumFrames
100.000000	100.000000	4	55	mm	100.000000	104	418
Frame#	Time	RPSI			LPSI			L3			STRN			T10			C7			CLAV			RBAK			LBAK			LSHO			LUPA			LAEL			LAOL			LWTS			LWPS			LFRA			LIFD			LHPS			LHTS			RSHO			RUPA			RAEL			RAOL			RWTS			RWPS			RFRA			RIFD			RHTS			RHPS			RBHD			LFHD			RFHD			LBHD			LHIP			RHIP			RASI			LASI			LKNE			LTHI			LANK			LTIP			LTOE			LMT1			LMT5			LHEE			RKNE			RTHI			RANK			RTIP			RTOE			RMT1			RMT5			RHEE			*53			*54			
		X1	Y1	Z1	X2	Y2	Z2	X3	Y3	Z3	X4	Y4	Z4	X5	Y5	Z5	X6	Y6	Z6	X7	Y7	Z7	X8	Y8	Z8	X9	Y9	Z9	X10	Y10	Z10	X11	Y11	Z11	X12	Y12	Z12	X13	Y13	Z13	X14	Y14	Z14	X15	Y15	Z15	X16	Y16	Z16	X17	Y17	Z17	X18	Y18	Z18	X19	Y19	Z19	X20	Y20	Z20	X21	Y21	Z21	X22	Y22	Z22	X23	Y23	Z23	X24	Y24	Z24	X25	Y25	Z25	X26	Y26	Z26	X27	Y27	Z27	X28	Y28	Z28	X29	Y29	Z29	X30	Y30	Z30	X31	Y31	Z31	X32	Y32	Z32	X33	Y33	Z33	X34	Y34	Z34	X35	Y35	Z35	X36	Y36	Z36	X37	Y37	Z37	X38	Y38	Z38	X39	Y39	Z39	X40	Y40	Z40	X41	Y41	Z41	X42	Y42	Z42	X43	Y43	Z43	X44	Y44	Z44	X45	Y45	Z45	X46	Y46	Z46	X47	Y47	Z47	X48	Y48	Z48	X49	Y49	Z49	X50	Y50	Z50	X51	Y51	Z51	X52	Y52	Z52	X53	Y53	Z53	X54	Y54	Z54	X55	Y55	Z55	

105	1.04	-1592.61328125	1042.564086914062	-65.29957580566406	-1585.6943359375	1048.391723632812	-185.3165130615234	-1592.655151367188	1140.181030273438	-136.0314025878906	-1326.92041015625	1307.169799804688	-134.5579528808594	-1588.523315429688	1266.343017578125	-125.5205993652344	-1504.705444335938	1521.06103515625	-128.9678649902344	-1346.186889648438	1426.603637695312	-131.7159881591797	-1589.868041992188	1389.56787109375	-51.71923828125	-1531.408569335938	1487.593994140625	-236.3534698486328	-1445.191040039062	1482.758178710938	-296.8170776367188	-1503.980590820312	1374.071044921875	-373.9051513671875	-1545.801513671875	1172.70654296875	-408.5801086425781	-1609.325805664062	1169.22509765625	-348.7913208007812	-1512.991821289062	918.70361328125	-385.1239624023438	-1558.29931640625	918.5245971679688	-456.7328491210938	-1555.793823242188	1065.964965820312	-431.8068542480469	-1563.911010742188	729.6484985351562	-407.9571228027344	-1566.176025390625	828.9850463867188	-460.8467712402344	-1513.209838867188	814.8853759765625	-419.391845703125	-1447.67529296875	1477.450927734375	36.53560638427734	-1466.915649414062	1418.843139648438	108.2311401367188	-1479.94140625	1139.875610351562	161.2055511474609	-1529.632934570312	1130.003540039062	80.20835876464844	-1356.847900390625	918.8814697265625	103.3098297119141	-1396.278076171875	909.7057495117188	177.0637969970703	-1451.64599609375	1071.104370117188	170.6714019775391	-1358.007690429688	721.5293579101562	107.1946640014648	-1324.819702148438	793.2821044921875	115.5840454101562	-1364.90283203125	800.1934204101562	175.6772918701172	-1477.59521484375	1665.738037109375	-107.7730865478516	-1259.853759765625	1714.875	-155.6620788574219	-1284.383056640625	1718.397827148438	-58.62155151367188	-1402.161376953125	1668.689331054688	-226.1468505859375	-1474.942504882812	990.5595703125	-315.6816101074219	-1505.719360351562	1000.101623535156	50.69329452514648	-1405.0478515625	1044.2138671875	20.13531494140625	-1377.319580078125	1031.782836914062	-257.7230224609375	-1288.558715820312	529.97900390625	-271.8825073242188	-1336.992553710938	669.32373046875	-297.8616027832031	-1468.259521484375	71.68680572509766	-271.2540893554688	-1380.7626953125	312.215087890625	-281.5570678710938	-1255.859130859375	69.21790313720703	-226.9046478271484	-1321.221069335938	63.27165603637695	-180.8772430419922	-1343.146484375	61.6563606262207	-293.1151733398438	-1528.138549804688	84.75543975830078	-218.6834869384766	-1515.765502929688	509.1304931640625	-5.951385974884033	-1460.846069335938	771.6109619140625	51.36649703979492	-1633.094604492188	38.77594757080078	-64.16022491455078	-1523.889526367188	393.2430725097656	-28.84001922607422	-1417.528686523438	47.68503570556641	-74.1368408203125	-1465.277221679688	44.22397613525391	-125.1452941894531	-1527.270141601562	40.45465469360352	-21.67045783996582	-1686.174072265625	39.00930404663086	-132.2996826171875	nan	nan	nan	nan	nan	nan	
106	1.05	-1589.964721679688	1042.2890625	-65.39195251464844	-1582.96484375	1048.0693359375	-185.3905334472656	-1589.501342773438	1140.18505859375	-135.9593811035156	-1323.348022460938	1306.605224609375	-134.3373565673828	-1585.056518554688	1266.222778320312	-125.3591156005859	-1500.7392578125	1520.784790039062	-128.8673400878906	-1342.3974609375	1426.083618164062	-131.5481872558594	-1586.361450195312	1389.647338867188	-51.61447525024414	-1527.344970703125	1487.358276367188	-236.2492523193359	-1441.153930664062	1482.41162109375	-296.6966552734375	-1500.644897460938	1374.242553710938	-373.7789916992188	-1544.521484375	1173.4814453125	-408.9218139648438	-1607.96630859375	1170.503173828125	-349.0195007324219	-1514.279663085938	919.0802001953125	-385.9136657714844	-1559.657104492188	919.4185180664062	-457.49072265625	-1555.630004882812	1066.85693359375	-432.3485107421875	-1567.483032226562	730.4657592773438	-408.7725524902344	-1568.713745117188	829.9733276367188	-461.5824279785156	-1516.01904296875	815.1111450195312	-420.0393676757812	-1443.99951171875	1477.099487304688	36.58584976196289	-1463.121948242188	1418.70263671875	108.443489074707	-1473.861694335938	1139.638549804688	162.0259552001953	-1523.980712890625	1129.222778320312	81.42592620849609	-1348.583374023438	920.0365600585938	102.9376907348633	-1387.526733398438	910.1396484375	176.8504638671875	-1444.694458007812	1071.067260742188	171.2646484375	-1347.9638671875	722.62255859375	105.8477554321289	-1315.312377929688	794.6450805664062	114.4844589233398	-1355.272705078125	800.9037475585938	174.7970886230469	-1473.482543945312	1665.277221679688	-107.6704788208008	-1255.8076171875	1714.225341796875	-155.9707641601562	-1280.109741210938	1717.863891601562	-58.89775466918945	-1398.26025390625	1668.054321289062	-226.1818695068359	-1472.276000976562	990.408203125	-315.4012756347656	-1503.328491210938	999.68115234375	50.76154708862305	-1402.546752929688	1043.898315429688	20.39469146728516	-1374.483276367188	1031.637573242188	-257.2865295410156	-1282.14599609375	531.434814453125	-272.1947021484375	-1332.038452148438	670.3060913085938	-298.1348571777344	-1453.14501953125	69.64306640625	-270.0193481445312	-1370.500244140625	311.8772583007812	-281.23828125	-1240.517944335938	70.79405975341797	-226.768310546875	-1305.534423828125	63.86311721801758	-180.3803253173828	-1328.014038085938	61.60423278808594	-292.5365295410156	-1512.967407226562	81.85507202148438	-217.0952301025391	-1514.185302734375	508.8724670410156	-5.95464563369751	-1458.849853515625	771.2318115234375	51.58560180664062	-1633.09130859375	38.79017639160156	-64.19211578369141	-1522.676635742188	392.8975524902344	-28.93681907653809	-1417.548217773438	47.69823455810547	-74.13597869873047	-1465.278076171875	44.189697265625	-125.1830825805664	-1527.267700195312	40.46774291992188	-21.68213844299316	-1686.200805664062	39.0428466796875	-132.3389739990234	nan	nan	nan	nan	nan	nan	
107	1.06	-1587.254516601562	1041.964965820312	-65.47146606445312	-1580.196655273438	1047.675415039062	-185.4529724121094	-1586.28564453125	1140.125610351562	-135.9107971191406	-1319.671508789062	1305.951904296875	-134.0827331542969	-1581.4755859375	1266.0576171875	-125.2675552368164	-1496.636474609375	1520.450439453125	-128.8438415527344	-1338.48828125	1425.475708007812	-131.3603363037109	-1582.763305664062	1389.648681640625	-51.62264633178711	-1523.087890625	1487.0751953125	-236.2518768310547	-1436.877563476562	1481.973999023438	-296.6167907714844	-1496.998779296875	1374.295654296875	-373.662353515625	-1542.929565429688	1174.184204101562	-409.2898254394531	-1606.315307617188	1171.697387695312	-349.296875	-1515.10302734375	919.4387817382812	-386.6736755371094	-1560.529296875	920.25048828125	-458.2291870117188	-1555.099975585938	1067.677734375	-432.9091491699219	-1570.648559570312	731.3256225585938	-409.4344787597656	-1570.778686523438	830.91748046875	-462.2886047363281	-1518.373291015625	815.3203735351562	-420.6221923828125	-1440.281860351562	1476.70361328125	36.58074569702148	-1459.280151367188	1418.49755859375	108.5797958374023	-1467.508666992188	1139.38427734375	162.8430480957031	-1518.106201171875	1128.364501953125	82.68621063232422	-1339.958251953125	921.301025390625	102.4222259521484	-1378.311889648438	910.6539916992188	176.5239868164062	-1437.419311523438	1071.050048828125	171.8148651123047	-1337.410522460938	723.8466796875	104.3235092163086	-1305.368896484375	796.1539916992188	113.1858367919922	-1345.1279296875	801.7303466796875	173.7628173828125	-1469.212036132812	1664.750610351562	-107.5828475952148	-1251.59619140625	1713.512817382812	-156.2910766601562	-1275.682983398438	1717.26513671875	-59.19217681884766	-1394.213134765625	1667.348999023438	-226.2304840087891	-1469.505249023438	990.1876831054688	-315.1790771484375	-1500.821044921875	999.2369995117188	50.81098556518555	-1399.949096679688	1043.509033203125	20.60943412780762	-1371.62939453125	1031.391967773438	-256.9053649902344	-1275.768920898438	532.8436279296875	-272.6383056640625	-1327.171997070312	671.1948852539062	-298.5639953613281	-1437.503662109375	67.57826232910156	-268.7543029785156	-1360.015991210938	311.5130004882812	-280.9672241210938	-1224.677490234375	72.44969940185547	-226.7694854736328	-1289.292602539062	64.50958251953125	-179.9851837158203	-1312.420043945312	61.6010627746582	-292.0281372070312	-1497.239135742188	78.92912292480469	-215.4333038330078	-1512.512329101562	508.6089172363281	-5.938890933990479	-1456.727661132812	770.8365478515625	51.77398681640625	-1633.091430664062	38.80039978027344	-64.21436309814453	-1521.4052734375	392.5281982421875	-29.0009880065918	-1417.57421875	47.71641540527344	-74.14182281494141	-1465.283447265625	44.15493392944336	-125.2249984741211	-1527.264526367188	40.4782829284668	-21.69361877441406	-1686.23046875	39.06298828125	-132.3668518066406	nan	nan	nan	nan	nan	nan	
108	1.07	-1584.477905273438	1041.582641601562	-65.5426025390625	-1577.381958007812	1047.209594726562	-185.5035552978516	-1583.0009765625	1139.993896484375	-135.8852233886719	-1315.895751953125	1305.2060546875	-133.8035278320312	-1577.78515625	1265.848754882812	-125.2555313110352	-1492.3974609375	1520.055419921875	-128.8969879150391	-1334.458129882812	1424.779541015625	-131.1617431640625	-1579.068359375	1389.566284179688	-51.73896026611328	-1518.645263671875	1486.743408203125	-236.3564910888672	-1432.369873046875	1481.442993164062	-296.5792541503906	-1493.06005859375	1374.226684570312	-373.5703735351562	-1541.032592773438	1174.8046875	-409.6915893554688	-1604.36767578125	1172.791015625	-349.6225891113281	-1515.435668945312	919.758056640625	-387.4268493652344	-1560.915649414062	921.0062255859375	-458.9655151367188	-1554.201293945312	1068.415771484375	-433.4999084472656	-1573.38671875	732.279052734375	-409.8979797363281	-1572.341430664062	831.7965087890625	-462.970703125	-1520.214477539062	815.5289916992188	-421.18115234375	-1436.506469726562	1476.26416015625	36.52065277099609	-1455.3701171875	1418.226318359375	108.6411056518555	-1460.894897460938	1139.116577148438	163.6467132568359	-1512.017944335938	1127.4423828125	83.97061157226562	-1331.007934570312	922.6787109375	101.7681579589844	-1368.67041015625	911.2593994140625	176.0827941894531	-1429.843505859375	1071.055541992188	172.3128051757812	-1326.335205078125	725.2139282226562	102.6612548828125	-1294.998779296875	797.8253173828125	111.7114562988281	-1334.477661132812	802.6971435546875	172.5882263183594	-1464.787841796875	1664.154418945312	-107.5131301879883	-1247.22314453125	1712.738037109375	-156.619873046875	-1271.114501953125	1716.602661132812	-59.49796295166016	-1390.016967773438	1666.574096679688	-226.2913208007812	-1466.601440429688	989.9050903320312	-315.0218200683594	-1498.19580078125	998.7697143554688	50.84524154663086	-1397.25732421875	1043.045776367188	20.78233909606934	-1368.731079101562	1031.044799804688	-256.5850524902344	-1269.409057617188	534.2078857421875	-273.1869812011719	-1322.36962890625	671.9967651367188	-299.1308898925781	-1421.389526367188	65.55000305175781	-267.4992065429688	-1349.307861328125	311.1521911621094	-280.7457580566406	-1208.424072265625	74.17913055419922	-226.8618316650391	-1272.595336914062	65.23202514648438	-179.6765441894531	-1296.413696289062	61.66892242431641	-291.5769958496094	-1481.028930664062	76.07243347167969	-213.7664947509766	-1510.734619140625	508.3304138183594	-5.904931545257568	-1454.464477539062	770.4141235351562	51.93079376220703	-1633.096313476562	38.8095588684082	-64.22843933105469	-1520.06103515625	392.1336364746094	-29.03022956848145	-1417.605712890625	47.73746871948242	-74.15296173095703	-1465.292724609375	44.11757659912109	-125.2731399536133	-1527.260620117188	40.4862174987793	-21.70462036132812	-1686.261108398438	39.06990051269531	-132.3809509277344	nan	nan	nan	nan	nan	nan	
